<?xml version="1.0" encoding="UTF-8"?><svg id="Ebene_1" xmlns="http://www.w3.org/2000/svg" viewBox="0 0 841.97 165.54"><path d="M806.78,20.23h5.87c3.28-.12,4.96,1.22,4.96,4.06,0,3.07-1.67,4.59-4.96,4.59h-5.87v-8.65ZM806.78,34.38h7.44c1.76,0,2.76,1.41,3.01,4.25.14,3.06.53,6.03,1.24,8.84h7.62c-.86-1.29-1.43-3.9-1.76-7.78,0-.24-.09-.6-.19-1.06-.24-4.73-2.2-7.14-5.87-7.26v-.17c4.38-1.07,6.62-3.73,6.72-7.97-.1-5.54-3.86-8.38-11.29-8.5h-13.97v32.74h7.05v-13.09Z" style="fill:#1d1d1b; stroke-width:0px;"/><path d="M811.56.7c16.78,0,30.41,13.66,30.41,30.41s-13.63,30.41-30.41,30.41-30.41-13.67-30.41-30.41,13.68-30.41,30.41-30.41M811.56,7.57c-12.97,0-23.5,10.57-23.5,23.53s10.53,23.54,23.5,23.54,23.55-10.57,23.55-23.54-10.58-23.53-23.55-23.53" style="fill:#1d1d1b; stroke-width:0px;"/><rect x="326.6" y="2.43" width="57.04" height="26.28" style="fill:#1d1d1b; stroke-width:0px;"/><path d="M57.21,41.34c-12.86,2.43-25.04,7.6-35.72,15.18C8.01,66.07,0,81.55,0,98.06v67.49h59.64v-69.63c0-4.21,1.67-8.24,4.64-11.23,2.98-2.96,7.02-4.65,11.23-4.65h44.63v85.5h58.04v-85.03h59.69v85.03h57.88V38.65H85.93c-9.63,0-19.25.9-28.72,2.69Z" style="fill:#1d1d1b; stroke-width:0px;"/><polygon points="325.37 165.54 327.15 165.54 385.66 165.54 385.66 38.87 325.37 38.87 325.37 165.54" style="fill:#1d1d1b; stroke-width:0px;"/><path d="M783.98,70.36c-4.51-6.14-10.11-11.39-16.52-15.48-8.48-5.42-17.81-9.37-27.6-11.71-10.79-2.57-21.85-3.87-32.95-3.87h-113.04v40.21h95.43c7.28,0,14.55.38,21.8,1.12,3.9.41,7.76,1.22,11.52,2.39,2.33.74,4.51,1.87,6.46,3.34,1.8,1.38,3.05,3.34,3.53,5.55.3,1.38.43,2.78.39,4.21h-70.56c-9.13,0-18.28.32-27.4.99-7.61.54-15.18,1.65-22.62,3.34-4.91,1.09-9.67,2.7-14.24,4.79-3.28,1.51-6.31,3.5-9,5.9-4.24,3.78-7.14,8.85-8.24,14.44-.57,2.89-.77,5.86-.58,8.85.44,6.05,3.09,11.74,7.49,15.98,2.79,2.68,5.99,4.9,9.48,6.59,6.4,3.11,13.22,5.24,20.24,6.38,8.83,1.43,17.77,2.15,26.72,2.15h148.23v-69.22c0-9.34-2.98-18.44-8.52-25.96ZM736.94,143.73h-71.85c-4.39,0-8.79-.18-13.17-.56-2.63-.21-5.24-.72-7.79-1.46.03,0,.05.02.08.03l-.16-.05s.05.01.08.02c-1.62-.48-3.13-1.27-4.44-2.31-2.12-1.73-3.39-4.26-3.49-6.99-.03-.94.03-1.86.17-2.8.28-1.84,1.07-3.61,2.29-5.04,1.17-1.39,2.66-2.52,4.35-3.25,3.07-1.34,6.32-2.22,9.65-2.61,5.41-.65,10.85-.95,16.31-.95h67.98v25.99Z" style="fill:#1d1d1b; stroke-width:0px;"/><path d="M504.19,0h-57.59v39.3h-38.08v39.4h38.08v51.34c0,10.26,5.38,19.73,14.17,24.98,5.84,3.5,12.22,6.02,18.86,7.45,9.42,2.04,19.03,3.07,28.67,3.07h53v-25.16h-24.94c-3.63,0-7.25-.17-10.87-.52-3.22-.3-6.4-.91-9.51-1.82-1.75-.51-3.43-1.21-5-2.15-3.12-1.83-5.33-4.87-6.09-8.39-.48-2.16-.71-4.38-.71-6.59v-42.21h57.11v-39.4h-57.11V0Z" style="fill:#1d1d1b; stroke-width:0px;"/><path d="M580.35,134.63c0-.06,0-.12,0-.19,0-.01,0-.02,0-.04v.22Z" style="fill:#1d1d1b; stroke-width:0px;"/></svg>